<svg width="37" height="37" viewBox="0 0 37 37" fill="none" xmlns="http://www.w3.org/2000/svg">
<path d="M25.86 10.0016H11.14C10.786 10.0016 10.5 10.2876 10.5 10.6416V25.3616C10.5 25.7156 10.786 26.0016 11.14 26.0016H25.86C26.214 26.0016 26.5 25.7156 26.5 25.3616V18.0016V10.6416C26.5 10.2876 26.214 10.0016 25.86 10.0016ZM24.012 14.6716H22.734C21.732 14.6716 21.538 15.1476 21.538 15.8476V17.3896H23.93L23.618 19.8036H21.538V26.0016H19.044V19.8056H16.958V17.3896H19.044V15.6096C19.044 13.5436 20.306 12.4176 22.15 12.4176C23.034 12.4176 23.792 12.4836 24.014 12.5136V14.6716H24.012Z" fill="#D9D9D9"/>
<rect x="1" y="0.501587" width="35" height="35" rx="17.5" stroke="#D9D9D9"/>
</svg>
