<svg width="25" height="25" viewBox="0 0 25 25" fill="none" xmlns="http://www.w3.org/2000/svg">
<g clip-path="url(#clip0_43_1008)">
<path d="M9.44157 22.1721C9.99386 22.1721 10.4416 21.7244 10.4416 21.1721C10.4416 20.6198 9.99386 20.1721 9.44157 20.1721C8.88929 20.1721 8.44157 20.6198 8.44157 21.1721C8.44157 21.7244 8.88929 22.1721 9.44157 22.1721Z" stroke="black" stroke-width="2" stroke-linecap="round" stroke-linejoin="round"/>
<path d="M20.4416 22.1721C20.9939 22.1721 21.4416 21.7244 21.4416 21.1721C21.4416 20.6198 20.9939 20.1721 20.4416 20.1721C19.8893 20.1721 19.4416 20.6198 19.4416 21.1721C19.4416 21.7244 19.8893 22.1721 20.4416 22.1721Z" stroke="black" stroke-width="2" stroke-linecap="round" stroke-linejoin="round"/>
<path d="M1.44157 1.17212H5.44157L8.12157 14.5621C8.21302 15.0225 8.46348 15.4361 8.82912 15.7304C9.19476 16.0248 9.65227 16.1811 10.1216 16.1721H19.8416C20.3109 16.1811 20.7684 16.0248 21.134 15.7304C21.4997 15.4361 21.7501 15.0225 21.8416 14.5621L23.4416 6.17212H6.44157" stroke="black" stroke-width="2" stroke-linecap="round" stroke-linejoin="round"/>
</g>
<defs>
<clipPath id="clip0_43_1008">
<rect width="24" height="24" fill="white" transform="translate(0.441574 0.172119)"/>
</clipPath>
</defs>
</svg>
